<svg id="レイヤー_1" data-name="レイヤー 1" xmlns="http://www.w3.org/2000/svg" viewBox="0 0 559.852 205.209"><defs><style>.cls-1{fill:#ff9600;}.cls-2{fill:#b99d9f;}.cls-3{fill:#f1e2e7;}.cls-4{fill:none;stroke:#000;stroke-width:0.5px;}.cls-5{fill:#500b10;}.cls-6{fill:#ba6f87;}.cls-7{fill:#fff;}</style></defs><polygon class="cls-1" points="280.915 137.256 280.915 67.304 315.891 102.28 280.915 137.256"/><rect class="cls-2" x="27.496" y="27.496" width="218.794" height="150.217"/><rect class="cls-3" x="36" y="35.999" width="201.787" height="133.209"/><polyline class="cls-4" points="1.984 169.209 27.496 169.209 27.496 203.224"/><polyline class="cls-4" points="36 203.224 36 177.713 1.984 177.713"/><polyline class="cls-4" points="1.984 36 27.496 36 27.496 1.984"/><polyline class="cls-4" points="36 1.984 36 27.496 1.984 27.496"/><polyline class="cls-4" points="271.802 36 246.29 36 246.29 1.984"/><polyline class="cls-4" points="237.786 1.984 237.786 27.496 271.802 27.496"/><polyline class="cls-4" points="271.802 169.209 246.29 169.209 246.29 203.224"/><polyline class="cls-4" points="237.786 203.224 237.786 177.713 271.802 177.713"/><line class="cls-4" y1="102.604" x2="24" y2="102.604"/><line class="cls-4" x1="18" y1="66.604" x2="18" y2="138.604"/><line class="cls-4" x1="273.786" y1="102.604" x2="249.786" y2="102.604"/><line class="cls-4" x1="255.786" y1="138.604" x2="255.786" y2="66.604"/><line class="cls-4" x1="100.893" y1="18" x2="172.893" y2="18"/><line class="cls-4" x1="136.893" x2="136.893" y2="24"/><line class="cls-4" x1="172.893" y1="187.209" x2="100.893" y2="187.209"/><line class="cls-4" x1="136.893" y1="205.209" x2="136.893" y2="181.209"/><path class="cls-5" d="M100.573,77.445c.578-.96,1.181-1.884,1.686-2.858a1.315,1.315,0,0,0-.062-1.023,28.975,28.975,0,0,1-.868-23.94c1.874-4.887,5.12-5.925,10.284-4.159A28.785,28.785,0,0,1,125.8,56.435a1.664,1.664,0,0,0,2.121.792,37.559,37.559,0,0,1,17.783.021,1.593,1.593,0,0,0,2.044-.725,29.736,29.736,0,0,1,13.958-11.071c2.96-1.11,6.751-1.452,8.912,1.447a14.044,14.044,0,0,1,1.962,3.414,28.819,28.819,0,0,1,.639,19.015c-.431,1.391-1.12,2.7-1.615,4.075a1.955,1.955,0,0,0-.013,1.342,27.656,27.656,0,0,0,1.475,2.528c.133-.161.308-.288.364-.454.908-2.7,2.919-3.719,5.627-3.867a33.816,33.816,0,0,1,24.491,8.131A23.918,23.918,0,0,1,211,91.447a4.3,4.3,0,0,1-1.228,5.065,3.914,3.914,0,0,1-4.653.336c-5.619-2.791-11.246-.576-13.684,5.316-1.565,3.782-3.97,4.59-7.578,2.547-4.025-2.28-7.373-2.244-10.336.365a15.949,15.949,0,0,0-2.782,3.572,28.133,28.133,0,0,1-10.687,10.058,2.789,2.789,0,0,0-1.088,1.7c-.616,2.56-1.629,4.814-3.975,6.272-3.773,2.343-9.93,1.385-12.851-1.945a2.529,2.529,0,0,0-1.662-.707c-2.352-.075-4.708-.052-7.062,0a2.11,2.11,0,0,0-1.356.473,11.008,11.008,0,0,1-9.877,3.341c-4.473-.6-6.467-3.6-7.546-7.584a2.8,2.8,0,0,0-1.163-1.656,25.251,25.251,0,0,1-10.636-10.475c-2.722-4.841-7.724-6.457-12.728-3.49-1.747,1.036-3.629,1.9-5.471.525A7.044,7.044,0,0,1,82.5,102.13C80.63,97.3,74.815,93.7,69.013,96.764c-1.662.877-3.354,1.151-4.792-.177A4.471,4.471,0,0,1,63,91.382,26.442,26.442,0,0,1,73.084,78.92a32.076,32.076,0,0,1,15.478-5.871A46.308,46.308,0,0,1,94.752,73a5.573,5.573,0,0,1,5.511,3.849A4.778,4.778,0,0,0,100.573,77.445Zm68.684-17.123a17.6,17.6,0,0,0-2.124-10.194c-.465-.783-1.045-1.18-1.937-.838a27.485,27.485,0,0,0-4.469,1.824c-4.305,2.606-7.9,5.932-9.977,10.655a1.492,1.492,0,0,1-2.068.959,57.911,57.911,0,0,0-7.607-1.54A38.1,38.1,0,0,0,124.8,62.766a1.311,1.311,0,0,1-1.866-.8,22.964,22.964,0,0,0-13.2-12.221c-2.375-.917-2.895-.707-3.754,1.669a25.827,25.827,0,0,0,1.353,21.314c.331.65.736,1.144.21,1.975-4.7,7.428-6.036,15.374-3.491,23.867,1.905,6.354,5.3,11.783,11.115,15.1,2.669,1.522,4.062,3.155,4.378,6.145a3.964,3.964,0,0,0,2.959,3.485c2.636.7,4.515-.268,5.608-3.127.5-1.308,1.149-1.474,2.323-1.186a26.153,26.153,0,0,0,12.667.054c1.344-.331,2.135-.278,2.614,1.307a4.209,4.209,0,0,0,4.1,3.209,4.3,4.3,0,0,0,4.168-3.115,11.629,11.629,0,0,0,.708-3.426c.052-1.065.6-1.474,1.394-2,2.425-1.606,5.039-3.068,7.076-5.091,5.327-5.292,7.654-12,7.8-19.386a27.435,27.435,0,0,0-4.613-15.825,1.99,1.99,0,0,1-.093-1.691A23.352,23.352,0,0,0,169.257,60.322Zm16.779,40.537c-.564-3.395-.92-6.572-1.661-9.657a48.69,48.69,0,0,0-2.45-6.7c-.454-1.126-1.169-2.148-1.608-3.278-.147-.378.194-.946.313-1.427a11.139,11.139,0,0,1,1.312.4c.2.091.343.343.5.53a29.063,29.063,0,0,1,5.054,9.013,25.69,25.69,0,0,1,1.058,3.625c.254,1.249.32,2.536.491,4,4.653-5.679,10.255-6.9,16.6-4.116a5.245,5.245,0,0,0,1.772.025c-.429-1.063-.739-1.871-1.082-2.664a7.237,7.237,0,0,0-.516-.881,26.763,26.763,0,0,0-11.886-10.248,27.649,27.649,0,0,0-14.241-2.636,2.205,2.205,0,0,0-2.212,1.513c-.51,1.355-1.35,2.583-1.923,3.918a4.939,4.939,0,0,0-.394,2.157c.15,2.582.651,5.166.553,7.732a55.012,55.012,0,0,1-1.136,7.147,44.772,44.772,0,0,1,6.366-.169C182.544,99.321,184.068,100.169,186.036,100.859ZM99.222,99.324c-.019-.194-.024-.376-.055-.553-.688-3.894-1.7-7.783-.825-11.762C98.9,84.478,98.3,82.4,97.274,80c-1.111-2.6-2.594-3.352-5.014-3.327-.635.006-1.267.124-1.9.172A28.423,28.423,0,0,0,70.23,86.893a47.288,47.288,0,0,0-3.745,5.837c1.37,1.422,2.284.344,3.2.018C73,91.569,76.324,91.187,79.476,93a56,56,0,0,1,5.178,3.752c.071-.209.281-.737.43-1.282.627-2.294.941-4.728,1.923-6.856a74.709,74.709,0,0,1,4.785-8.154c.238-.379.957-.457,1.453-.674.125.572.272,1.14.361,1.718a1.218,1.218,0,0,1-.175.551c-1.29,3.139-2.835,6.2-3.8,9.437a81.86,81.86,0,0,0-1.706,9.257l.346.243C91.682,98.866,95.388,98.889,99.222,99.324Z"/><path class="cls-5" d="M202.891,103.17c-.28,4.013-1.487,7.332-4.276,9.945a4.538,4.538,0,0,1-.949.687c-.825.438-1.7.71-2.35-.236a1.766,1.766,0,0,1,.337-2.511,9.438,9.438,0,0,0,3.49-6.223,15.431,15.431,0,0,0-.286-3.565c-.15-1.065-.636-2.211.892-2.654,1.305-.378,2.375.408,2.705,1.959C202.657,101.525,202.78,102.5,202.891,103.17Z"/><path class="cls-5" d="M72.922,98.551c1.925.016,2.591.862,2.174,2.317-.523,1.826-.976,3.668-.09,5.429a27.128,27.128,0,0,0,2.919,4.612c.814,1.03,1.279,2.14.552,2.825-.891.84-1.837.458-2.661-.168a11.1,11.1,0,0,1-3.869-5.231c-.908-2.649-1.508-5.422-.4-8.171A5.744,5.744,0,0,1,72.922,98.551Z"/><path class="cls-5" d="M196.992,104.444a7.213,7.213,0,0,1-3.443,5.664c-.9.575-1.765.681-2.453-.249-.63-.853-.223-1.452.534-2.081a4.927,4.927,0,0,0,1.879-3.807,1.9,1.9,0,0,1,1.9-2.025C196.54,101.947,197.041,102.871,196.992,104.444Z"/><path class="cls-5" d="M81.559,110.64a6.408,6.408,0,0,1-4.31-4.432A4.766,4.766,0,0,1,77,103.623,2.561,2.561,0,0,1,78.524,102c.429-.1,1.506.766,1.593,1.311a7.819,7.819,0,0,0,2.71,5.178,1.21,1.21,0,0,1,0,1.173A5.515,5.515,0,0,1,81.559,110.64Z"/><path class="cls-6" d="M169.257,60.322a23.352,23.352,0,0,1-2.992,12.7,1.99,1.99,0,0,0,.093,1.691,27.435,27.435,0,0,1,4.613,15.825c-.146,7.384-2.473,14.094-7.8,19.386-2.037,2.023-4.651,3.485-7.076,5.091-.795.526-1.342.935-1.394,2a11.629,11.629,0,0,1-.708,3.426,4.3,4.3,0,0,1-4.168,3.115,4.209,4.209,0,0,1-4.1-3.209c-.479-1.585-1.27-1.638-2.614-1.307a26.153,26.153,0,0,1-12.667-.054c-1.174-.288-1.824-.122-2.323,1.186-1.093,2.859-2.972,3.826-5.608,3.127a3.964,3.964,0,0,1-2.959-3.485c-.316-2.99-1.709-4.623-4.378-6.145-5.817-3.317-9.21-8.746-11.115-15.1-2.545-8.493-1.212-16.439,3.491-23.867.526-.831.121-1.325-.21-1.975a25.827,25.827,0,0,1-1.353-21.314c.859-2.376,1.379-2.586,3.754-1.669a22.964,22.964,0,0,1,13.2,12.221,1.311,1.311,0,0,0,1.866.8,38.1,38.1,0,0,1,16.274-1.578,57.911,57.911,0,0,1,7.607,1.54,1.492,1.492,0,0,0,2.068-.959c2.074-4.723,5.672-8.049,9.977-10.655A27.485,27.485,0,0,1,165.2,49.29c.892-.342,1.472.055,1.937.838A17.6,17.6,0,0,1,169.257,60.322ZM136.4,94.441l.218.357c1.473-.085,2.627.21,3.341,1.773s1.858,1.746,3.385.923c2.3-1.238,2.985-3.422,3.246-5.759s-.865-3.1-3.119-2.35c-2.843.944-5.715,1.859-8.767,1.152-1.664-.386-3.3-.9-4.94-1.375-1.692-.492-2.915.25-2.675,1.946a13.319,13.319,0,0,0,1.537,4.943c1.53,2.538,3.813,2.333,5.43-.053C134.544,95.28,135.6,94.949,136.4,94.441Zm-15.279-14.05a11.075,11.075,0,0,0-2.051.663,5.476,5.476,0,0,0-1.984,7.311,4.218,4.218,0,0,0,6.28,1.811c1.59-.965,2-2.474,2.217-4.093A5.14,5.14,0,0,0,121.123,80.391Zm27.087,5.34c-.009,2.86,2.03,5.385,4.458,5.208,2.544-.186,4.569-1.663,4.593-5.181.02-2.974-1.969-5.218-4.6-5.208C150.126,80.56,148.219,82.782,148.21,85.731Z"/><path class="cls-6" d="M186.036,100.859c-1.968-.69-3.492-1.538-5.088-1.706a44.772,44.772,0,0,0-6.366.169,55.012,55.012,0,0,0,1.136-7.147c.1-2.566-.4-5.15-.553-7.732a4.939,4.939,0,0,1,.394-2.157c.573-1.335,1.413-2.563,1.923-3.918a2.205,2.205,0,0,1,2.212-1.513,27.649,27.649,0,0,1,14.241,2.636,26.763,26.763,0,0,1,11.886,10.248,7.237,7.237,0,0,1,.516.881c.343.793.653,1.6,1.082,2.664a5.245,5.245,0,0,1-1.772-.025c-6.345-2.787-11.947-1.563-16.6,4.116-.171-1.467-.237-2.754-.491-4a25.69,25.69,0,0,0-1.058-3.625,29.063,29.063,0,0,0-5.054-9.013c-.159-.187-.3-.439-.5-.53a11.139,11.139,0,0,0-1.312-.4c-.119.481-.46,1.049-.313,1.427.439,1.13,1.154,2.152,1.608,3.278a48.69,48.69,0,0,1,2.45,6.7C185.116,94.287,185.472,97.464,186.036,100.859Z"/><path class="cls-6" d="M99.222,99.324c-3.834-.435-7.54-.458-10.951,1.672l-.346-.243A81.86,81.86,0,0,1,89.631,91.5c.965-3.235,2.51-6.3,3.8-9.437a1.218,1.218,0,0,0,.175-.551c-.089-.578-.236-1.146-.361-1.718-.5.217-1.215.295-1.453.674a74.709,74.709,0,0,0-4.785,8.154c-.982,2.128-1.3,4.562-1.923,6.856-.149.545-.359,1.073-.43,1.282A56,56,0,0,0,79.476,93c-3.152-1.817-6.478-1.435-9.791-.256-.916.326-1.83,1.4-3.2-.018a47.288,47.288,0,0,1,3.745-5.837A28.423,28.423,0,0,1,90.358,76.841c.635-.048,1.267-.166,1.9-.172,2.42-.025,3.9.724,5.014,3.327C98.3,82.4,98.9,84.478,98.342,87.009c-.877,3.979.137,7.868.825,11.762C99.2,98.948,99.2,99.13,99.222,99.324Z"/><path class="cls-5" d="M136.4,94.441c-.8.508-1.858.839-2.344,1.557-1.617,2.386-3.9,2.591-5.43.053a13.319,13.319,0,0,1-1.537-4.943c-.24-1.7.983-2.438,2.675-1.946,1.641.478,3.276.989,4.94,1.375,3.052.707,5.924-.208,8.767-1.152,2.254-.749,3.381.011,3.119,2.35s-.949,4.521-3.246,5.759c-1.527.823-2.674.633-3.385-.923s-1.868-1.858-3.341-1.773Zm-5.17,1.37.587-.186,1.09-2.388-2.769-1.064-.34.245Zm12.64-3.7-3.011,1.075,1.166,2.524.464.015Z"/><path class="cls-5" d="M121.123,80.391a5.14,5.14,0,0,1,4.462,5.692c-.213,1.619-.627,3.128-2.217,4.093a4.218,4.218,0,0,1-6.28-1.811,5.476,5.476,0,0,1,1.984-7.311A11.075,11.075,0,0,1,121.123,80.391Z"/><path class="cls-5" d="M148.21,85.731c.009-2.949,1.916-5.171,4.447-5.181,2.635-.01,4.624,2.234,4.6,5.208-.024,3.518-2.049,5-4.593,5.181C150.24,91.116,148.2,88.591,148.21,85.731Z"/><path class="cls-7" d="M131.232,95.811,129.8,92.418l.34-.245,2.769,1.064-1.09,2.388Z"/><path class="cls-7" d="M143.872,92.108l-1.381,3.614-.464-.015-1.166-2.524Z"/><path class="cls-5" d="M209.485,147.519c-.254-.066-.5-.119-.729-.161-.012-.222-.02-.5-.02-.839v-.04c.18-.023.356-.048.532-.076a7.284,7.284,0,0,0,3.222-1.252,4.629,4.629,0,0,0,1.87-3.858,4.52,4.52,0,0,0-1.765-3.756h0a6.616,6.616,0,0,0-3.156-1.164c-.2-.025-.4-.046-.6-.065-.016-.172-.034-.344-.053-.513a7.076,7.076,0,0,0-1.227-3.369,4.8,4.8,0,0,0-4.034-1.911A4.942,4.942,0,0,0,200.2,131.7a6.116,6.116,0,0,0-1.659,2.4,10.648,10.648,0,0,0-.614,2.329c-.146.022-.29.046-.431.072a5.943,5.943,0,0,0-3.037,1.451,4.462,4.462,0,0,0-.955,1.3c-.178-.119-.343-.247-.532-.357a11.34,11.34,0,0,0-5.746-1.347,11.767,11.767,0,0,0-2.461.272,9.7,9.7,0,0,0-2.23.789,8.312,8.312,0,0,0-1.75-4.166,9.886,9.886,0,0,0-4.232-2.986,15.578,15.578,0,0,0-5.586-.938,11.882,11.882,0,0,0-6.514,1.742,10.714,10.714,0,0,0-2.82,2.667,4.645,4.645,0,0,0-1.554-1.382,10.678,10.678,0,0,0-4.4-1.065c-1.147-.079-2.541-.128-4.16-.149A4.786,4.786,0,0,0,150.3,131.1a5.91,5.91,0,0,0-6.6,0,5.081,5.081,0,0,0-1.446,1.49c-.046.007-.088.017-.134.024.01-.171.023-.34.023-.517,0-3.671-2.3-4.973-4.27-4.973a4.142,4.142,0,0,0-1.914.454,4.232,4.232,0,0,0-1.937-.454,3.837,3.837,0,0,0-3.555,2.085,5.5,5.5,0,0,0-.5,1.557c-.025,0-.047,0-.072,0a5.19,5.19,0,0,0-3.022.851,4.82,4.82,0,0,0-1.582,1.833c-.879.024-1.674.064-2.375.121a10.538,10.538,0,0,0-2.233.406c-.1-.171-.192-.345-.31-.509a4.9,4.9,0,0,0-4.2-1.968,5.367,5.367,0,0,0-4.042,1.706,7.5,7.5,0,0,0-.745.97,4.767,4.767,0,0,0-.875-.627,10.678,10.678,0,0,0-4.4-1.065c-1.147-.079-2.541-.128-4.16-.149a4.786,4.786,0,0,0-1.223-1.226,5.91,5.91,0,0,0-6.6,0,5.067,5.067,0,0,0-1.445,1.49c-.047.007-.089.017-.135.024.01-.171.023-.34.023-.517,0-3.671-2.3-4.973-4.27-4.973a4.142,4.142,0,0,0-1.914.454,4.23,4.23,0,0,0-1.936-.454,3.838,3.838,0,0,0-3.556,2.085,5.532,5.532,0,0,0-.5,1.557c-.024,0-.046,0-.071,0a5.194,5.194,0,0,0-3.023.851,4.82,4.82,0,0,0-1.582,1.833c-.879.024-1.674.064-2.375.121a10.538,10.538,0,0,0-2.233.406c-.1-.171-.192-.345-.31-.509a4.9,4.9,0,0,0-4.2-1.968,5.367,5.367,0,0,0-4.042,1.706,8.5,8.5,0,0,0-1.832,3.251,16.984,16.984,0,0,0-.707,3.557c-.109,1.151-.165,2.283-.165,3.366a27.8,27.8,0,0,0,.32,4.167,22.028,22.028,0,0,0,.975,3.991,10.6,10.6,0,0,0,1.889,3.419A5.114,5.114,0,0,0,67,156.84a4.422,4.422,0,0,0,3.222-1.388,4.729,4.729,0,0,0,.433-.541,8.089,8.089,0,0,0,1.011.72,7.84,7.84,0,0,0,4.075,1.087,9.1,9.1,0,0,0,4.7-1.146,9.2,9.2,0,0,0,1.1-.76,5.224,5.224,0,0,0,2.273.5,4.438,4.438,0,0,0,3.411-1.5,4.709,4.709,0,0,0,1.164-3.141,7.916,7.916,0,0,0-1.166-3.993,11.591,11.591,0,0,0-1.772-2.3c.011-.275.021-.578.032-.913a6.876,6.876,0,0,0,1.542-.643,4.371,4.371,0,0,0,1.538-1.5,4.784,4.784,0,0,0,.887.681,6.808,6.808,0,0,0,1.058.5,13.825,13.825,0,0,1-.694,1.648q-.418.837-.834,1.749a7.014,7.014,0,0,0-.634,2.937,4.917,4.917,0,0,0,5.033,4.85,5.48,5.48,0,0,0,2.843-.788,4.992,4.992,0,0,0,1.7,2.269,9.033,9.033,0,0,0,3.408,1.549,15.365,15.365,0,0,0,3.574.424,14.279,14.279,0,0,0,3.574-.435,7.776,7.776,0,0,0,3.27-1.663,5.045,5.045,0,0,0,.515-.563c.118.158.233.32.357.464a5.114,5.114,0,0,0,3.959,1.891,4.422,4.422,0,0,0,3.222-1.388,4.614,4.614,0,0,0,.432-.541,8.239,8.239,0,0,0,1.011.72,7.845,7.845,0,0,0,4.075,1.087,9.1,9.1,0,0,0,4.7-1.146,9.286,9.286,0,0,0,1.1-.76,5.224,5.224,0,0,0,2.273.5,4.438,4.438,0,0,0,3.411-1.5,4.709,4.709,0,0,0,1.164-3.141,7.916,7.916,0,0,0-1.166-3.993,11.591,11.591,0,0,0-1.772-2.3c.011-.275.021-.578.031-.913a6.856,6.856,0,0,0,1.542-.643,4.366,4.366,0,0,0,1.539-1.5,4.751,4.751,0,0,0,.887.681,6.808,6.808,0,0,0,1.058.5,13.825,13.825,0,0,1-.694,1.648q-.418.837-.834,1.749a7.014,7.014,0,0,0-.634,2.937,4.917,4.917,0,0,0,5.033,4.85,5.48,5.48,0,0,0,2.843-.788,4.992,4.992,0,0,0,1.7,2.269,9.033,9.033,0,0,0,3.408,1.549,15.358,15.358,0,0,0,3.574.424,14.279,14.279,0,0,0,3.574-.435,7.776,7.776,0,0,0,3.27-1.663,5.059,5.059,0,0,0,.976-1.217,9.581,9.581,0,0,0,2.822,1.976,16.182,16.182,0,0,0,6.625,1.308,15.906,15.906,0,0,0,4.774-.624,9.254,9.254,0,0,0,3.522-1.929c.091-.084.169-.174.255-.259a6.974,6.974,0,0,0,3.115,2.221,10.453,10.453,0,0,0,3.645.622,11.808,11.808,0,0,0,2.949-.313q.358-.093.7-.21a5.207,5.207,0,0,0,2.43.523,4.555,4.555,0,0,0,3.589-1.567,4.878,4.878,0,0,0,1.2-3.223,4.966,4.966,0,0,0-.477-2.121c-.032-.068-.066-.137-.1-.2.032-.137.062-.28.09-.427a13.012,13.012,0,0,0,.214-2.413c0-.265-.026-.524-.046-.785l.029.006.135.023.008.209c.032.914.093,1.79.181,2.6a10.666,10.666,0,0,0,.523,2.462,7.485,7.485,0,0,0,1.946,3.042,9.111,9.111,0,0,0,10.1,1.508,4.4,4.4,0,0,0,2.469-3.93,5.247,5.247,0,0,0-.837-2.966A4.308,4.308,0,0,0,209.485,147.519Z"/><path class="cls-6" d="M67,154.221a2.53,2.53,0,0,1-1.971-.978,7.985,7.985,0,0,1-1.406-2.583,19.227,19.227,0,0,1-.856-3.514,25.03,25.03,0,0,1-.29-3.774q0-1.5.153-3.118a14.232,14.232,0,0,1,.6-3.01,5.889,5.889,0,0,1,1.252-2.262,2.768,2.768,0,0,1,2.125-.871,2.392,2.392,0,0,1,2.078.887,3.447,3.447,0,0,1,.642,2.078,6.778,6.778,0,0,1-.382,2.231q-.382,1.1-.764,2.338a9.809,9.809,0,0,0-.383,2.888,21.02,21.02,0,0,0,.169,2.949,13.682,13.682,0,0,0,.4,1.91q.229.764.4,1.375a5.07,5.07,0,0,1,.168,1.345,2.083,2.083,0,0,1-.58,1.513A1.827,1.827,0,0,1,67,154.221Zm8.741-.122a5.248,5.248,0,0,1-2.736-.719,5.393,5.393,0,0,1-1.91-1.895,4.878,4.878,0,0,1-.7-2.551,5.225,5.225,0,0,1,3.132-5.013,7.668,7.668,0,0,1,3.255-.672,8.466,8.466,0,0,1,1.253.092q-.032-.519-.061-1.008t-.061-.979q-2.507,0-4.248-.122a5.907,5.907,0,0,1-2.66-.688,2.036,2.036,0,0,1-.916-1.879,1.958,1.958,0,0,1,.886-1.8,5.869,5.869,0,0,1,2.583-.688q1.695-.137,4.141-.137A4.527,4.527,0,0,1,78,134.753a2.169,2.169,0,0,1,.8-.993,2.644,2.644,0,0,1,1.528-.382,2.7,2.7,0,0,1,1.589.4,2.134,2.134,0,0,1,.779,1.039,5.333,5.333,0,0,1,.291,1.314,6.591,6.591,0,0,1,2.735.7,1.96,1.96,0,0,1,.932,1.834,2.01,2.01,0,0,1-.947,1.9,6.806,6.806,0,0,1-2.782.7q-.03,1.069-.061,2.063T82.8,144.96a4.271,4.271,0,0,1-.03.52A9.4,9.4,0,0,1,84.956,148a5.325,5.325,0,0,1,.81,2.675,2.094,2.094,0,0,1-.52,1.421,1.807,1.807,0,0,1-1.436.6,2.585,2.585,0,0,1-1.421-.4,6.122,6.122,0,0,1-1.177-.978,6.314,6.314,0,0,1-2.108,2A6.517,6.517,0,0,1,75.742,154.1Zm.672-4a1.115,1.115,0,0,0,1.284-.565,4.305,4.305,0,0,0,.4-1.6,2.74,2.74,0,0,0-1.62-.519,1.762,1.762,0,0,0-1.07.336,1.107,1.107,0,0,0-.458.947,1.34,1.34,0,0,0,.412,1.009A1.46,1.46,0,0,0,76.414,150.1Zm8.038-15.158a1.23,1.23,0,0,1-1.223-.719,4.917,4.917,0,0,1-.336-2.032,3.966,3.966,0,0,1,.336-1.788,1.248,1.248,0,0,1,1.223-.657,1.317,1.317,0,0,1,1.253.657,3.762,3.762,0,0,1,.366,1.818,4.477,4.477,0,0,1-.366,2A1.294,1.294,0,0,1,84.452,134.937Zm3.789,0a1.163,1.163,0,0,1-1.207-.75,5.331,5.331,0,0,1-.29-1.91,4.791,4.791,0,0,1,.305-1.756,1.21,1.21,0,0,1,1.253-.78q1.651,0,1.651,2.353a4.97,4.97,0,0,1-.367,2A1.342,1.342,0,0,1,88.241,134.937Z"/><path class="cls-6" d="M93.375,151.073a2.279,2.279,0,0,1-1.772-.7,2.226,2.226,0,0,1-.642-1.528,4.4,4.4,0,0,1,.4-1.849q.4-.871.794-1.666a16.259,16.259,0,0,0,.932-2.277,19.27,19.27,0,0,0,.627-2.521,7.226,7.226,0,0,1-2.934-.779,2.355,2.355,0,0,1,.2-3.988,9.863,9.863,0,0,1,3.5-.734,2.756,2.756,0,0,1,1.115-1.757,3.242,3.242,0,0,1,1.849-.565,3.1,3.1,0,0,1,1.8.549,2.41,2.41,0,0,1,.978,1.682q3.483,0,5.715.152a8.345,8.345,0,0,1,3.315.749,2.336,2.336,0,0,1-.045,3.973,8.881,8.881,0,0,1-3.469.733q-2.338.138-5.945.138a27.606,27.606,0,0,1-.886,3.331,23.232,23.232,0,0,1-1.344,3.209,16.313,16.313,0,0,1-.994,1.7,6.583,6.583,0,0,1-1.375,1.528A2.815,2.815,0,0,1,93.375,151.073Zm11.522,3.453a12.7,12.7,0,0,1-2.964-.351,6.432,6.432,0,0,1-2.43-1.085,2.276,2.276,0,0,1-.962-1.9,2.1,2.1,0,0,1,.519-1.344,2,2,0,0,1,1.65-.643,3.431,3.431,0,0,1,1.223.2q.519.2,1.176.4a6.435,6.435,0,0,0,1.788.2,5.77,5.77,0,0,0,1.727-.2,8.788,8.788,0,0,0,1.009-.4,2.278,2.278,0,0,1,.993-.2,2.037,2.037,0,0,1,1.681.643,2.109,2.109,0,0,1,.519,1.344,2.418,2.418,0,0,1-.825,1.9,5.182,5.182,0,0,1-2.185,1.085A11.647,11.647,0,0,1,104.9,154.526Zm-3.056-7.548a2.228,2.228,0,0,1-1.512-.489,1.755,1.755,0,0,1-.566-1.406,2.145,2.145,0,0,1,.764-1.757,4.41,4.41,0,0,1,1.926-.871,11.385,11.385,0,0,1,2.353-.245,12.31,12.31,0,0,1,2.536.245,3.975,3.975,0,0,1,1.865.871,2.232,2.232,0,0,1,.7,1.757,1.629,1.629,0,0,1-.627,1.406,2.515,2.515,0,0,1-1.6.428q-.55-.032-1.452-.031h-1.421q-.888,0-1.758.046T101.841,146.978Z"/><path class="cls-6" d="M116.572,154.221a2.53,2.53,0,0,1-1.971-.978,7.985,7.985,0,0,1-1.406-2.583,19.145,19.145,0,0,1-.856-3.514,25.03,25.03,0,0,1-.29-3.774q0-1.5.153-3.118a14.3,14.3,0,0,1,.595-3.01,5.9,5.9,0,0,1,1.253-2.262,2.764,2.764,0,0,1,2.124-.871,2.392,2.392,0,0,1,2.079.887,3.447,3.447,0,0,1,.642,2.078,6.778,6.778,0,0,1-.382,2.231q-.384,1.1-.764,2.338a9.809,9.809,0,0,0-.383,2.888,20.869,20.869,0,0,0,.169,2.949,13.539,13.539,0,0,0,.4,1.91q.228.764.4,1.375a5.07,5.07,0,0,1,.168,1.345,2.083,2.083,0,0,1-.58,1.513A1.827,1.827,0,0,1,116.572,154.221Zm8.74-.122a5.244,5.244,0,0,1-2.735-.719,5.393,5.393,0,0,1-1.91-1.895,4.879,4.879,0,0,1-.7-2.551,5.228,5.228,0,0,1,3.133-5.013,7.668,7.668,0,0,1,3.255-.672,8.443,8.443,0,0,1,1.252.092c-.02-.346-.041-.682-.061-1.008s-.041-.652-.061-.979q-2.5,0-4.248-.122a5.906,5.906,0,0,1-2.659-.688,2.034,2.034,0,0,1-.916-1.879,1.958,1.958,0,0,1,.886-1.8,5.868,5.868,0,0,1,2.582-.688q1.7-.137,4.142-.137a4.527,4.527,0,0,1,.3-1.284,2.169,2.169,0,0,1,.8-.993,2.64,2.64,0,0,1,1.527-.382,2.7,2.7,0,0,1,1.59.4,2.14,2.14,0,0,1,.779,1.039,5.333,5.333,0,0,1,.291,1.314,6.6,6.6,0,0,1,2.735.7,1.96,1.96,0,0,1,.932,1.834,2.008,2.008,0,0,1-.948,1.9,6.8,6.8,0,0,1-2.781.7q-.03,1.069-.061,2.063t-.061,1.634a4.271,4.271,0,0,1-.03.52A9.418,9.418,0,0,1,134.527,148a5.333,5.333,0,0,1,.809,2.675,2.093,2.093,0,0,1-.519,1.421,1.807,1.807,0,0,1-1.436.6,2.591,2.591,0,0,1-1.422-.4,6.147,6.147,0,0,1-1.176-.978,6.308,6.308,0,0,1-2.109,2A6.512,6.512,0,0,1,125.312,154.1Zm.673-4a1.115,1.115,0,0,0,1.284-.565,4.305,4.305,0,0,0,.4-1.6,2.757,2.757,0,0,0-.749-.382,2.725,2.725,0,0,0-.871-.137,1.762,1.762,0,0,0-1.07.336,1.1,1.1,0,0,0-.458.947,1.34,1.34,0,0,0,.412,1.009A1.46,1.46,0,0,0,125.985,150.1Zm8.037-15.158a1.23,1.23,0,0,1-1.222-.719,4.917,4.917,0,0,1-.336-2.032,3.966,3.966,0,0,1,.336-1.788,1.248,1.248,0,0,1,1.222-.657,1.315,1.315,0,0,1,1.253.657,3.75,3.75,0,0,1,.367,1.818,4.461,4.461,0,0,1-.367,2A1.292,1.292,0,0,1,134.022,134.937Zm3.79,0a1.162,1.162,0,0,1-1.207-.75,5.329,5.329,0,0,1-.291-1.91,4.791,4.791,0,0,1,.306-1.756,1.21,1.21,0,0,1,1.253-.78q1.651,0,1.65,2.353a4.988,4.988,0,0,1-.366,2A1.342,1.342,0,0,1,137.812,134.937Z"/><path class="cls-6" d="M142.946,151.073a2.277,2.277,0,0,1-1.772-.7,2.226,2.226,0,0,1-.642-1.528,4.4,4.4,0,0,1,.4-1.849q.4-.871.794-1.666a16.381,16.381,0,0,0,.932-2.277,19.27,19.27,0,0,0,.627-2.521,7.226,7.226,0,0,1-2.934-.779,2.354,2.354,0,0,1,.2-3.988,9.874,9.874,0,0,1,3.5-.734,2.756,2.756,0,0,1,1.115-1.757,3.242,3.242,0,0,1,1.849-.565,3.1,3.1,0,0,1,1.8.549,2.4,2.4,0,0,1,.978,1.682q3.484,0,5.715.152a8.346,8.346,0,0,1,3.316.749,2.335,2.335,0,0,1-.046,3.973,8.875,8.875,0,0,1-3.468.733q-2.338.138-5.945.138a27.606,27.606,0,0,1-.886,3.331,23.238,23.238,0,0,1-1.345,3.209,16.117,16.117,0,0,1-.993,1.7,6.583,6.583,0,0,1-1.375,1.528A2.815,2.815,0,0,1,142.946,151.073Zm11.522,3.453a12.7,12.7,0,0,1-2.964-.351,6.432,6.432,0,0,1-2.43-1.085,2.277,2.277,0,0,1-.963-1.9,2.105,2.105,0,0,1,.52-1.344,2,2,0,0,1,1.65-.643,3.431,3.431,0,0,1,1.223.2q.519.2,1.176.4a6.43,6.43,0,0,0,1.788.2,5.77,5.77,0,0,0,1.727-.2,8.788,8.788,0,0,0,1.009-.4,2.278,2.278,0,0,1,.993-.2,2.034,2.034,0,0,1,1.68.643,2.105,2.105,0,0,1,.52,1.344,2.418,2.418,0,0,1-.825,1.9,5.182,5.182,0,0,1-2.185,1.085A11.653,11.653,0,0,1,154.468,154.526Zm-3.056-7.548a2.232,2.232,0,0,1-1.513-.489,1.758,1.758,0,0,1-.565-1.406,2.142,2.142,0,0,1,.764-1.757,4.411,4.411,0,0,1,1.925-.871,11.393,11.393,0,0,1,2.353-.245,12.32,12.32,0,0,1,2.537.245,3.967,3.967,0,0,1,1.864.871,2.229,2.229,0,0,1,.7,1.757,1.628,1.628,0,0,1-.626,1.406,2.516,2.516,0,0,1-1.6.428c-.367-.021-.852-.031-1.452-.031h-1.422q-.887,0-1.757.046T151.412,146.978Z"/><path class="cls-6" d="M171.735,154.5a13.5,13.5,0,0,1-5.531-1.07,7.04,7.04,0,0,1-3.423-3.346,13.7,13.7,0,0,1-1.161-6.128,13.917,13.917,0,0,1,1.085-5.745,8.4,8.4,0,0,1,3.163-3.744,9.281,9.281,0,0,1,5.1-1.33,12.919,12.919,0,0,1,4.646.764,7.27,7.27,0,0,1,3.132,2.186,6.351,6.351,0,0,1,.642,6.616,7.46,7.46,0,0,1-2.216,2.445,3.307,3.307,0,0,1,1.941,1.192,3.61,3.61,0,0,1,.871,2.445,5.407,5.407,0,0,1-.4,1.986,5.057,5.057,0,0,1-1.33,1.864,6.648,6.648,0,0,1-2.536,1.361A13.492,13.492,0,0,1,171.735,154.5Zm-2.109-11.4a3.679,3.679,0,0,0,1.529.26,2.861,2.861,0,0,0,1.574-.474,1.769,1.769,0,0,0,.275-2.536,2.207,2.207,0,0,0-1.024-.6,4,4,0,0,0-1.253-.138,2.6,2.6,0,0,0-1.1.275,1.444,1.444,0,0,0-.779.948,2.263,2.263,0,0,0,0,1.329A1.434,1.434,0,0,0,169.626,143.1Zm0,7.152a4.1,4.1,0,0,0,1.529.229,3.19,3.19,0,0,0,1.574-.413,1.316,1.316,0,0,0,.688-1.222,1.292,1.292,0,0,0-.413-.993,2.3,2.3,0,0,0-1.024-.535,3.953,3.953,0,0,0-1.253-.107,3.674,3.674,0,0,0-1.1.229,1.334,1.334,0,0,0-.779.825,1.739,1.739,0,0,0,0,1.161A1.328,1.328,0,0,0,169.626,150.248Z"/><path class="cls-6" d="M187.046,154.526a7.813,7.813,0,0,1-2.735-.458,4.374,4.374,0,0,1-1.971-1.391,3.711,3.711,0,0,1-.734-2.368,3.088,3.088,0,0,1,.734-2.079,4.673,4.673,0,0,1,1.971-1.313,7.813,7.813,0,0,1,2.735-.459,8.785,8.785,0,0,1,1.62.138,2.944,2.944,0,0,1,1.009.321,1.64,1.64,0,0,0-.581-1.238,2.977,2.977,0,0,0-2.017-.535,4.1,4.1,0,0,0-1.055.107,3.934,3.934,0,0,0-.687.26,3.428,3.428,0,0,1-1.711.366,2.188,2.188,0,0,1-1.513-.5,1.959,1.959,0,0,1-.566-1.543,2.588,2.588,0,0,1,.535-1.635,4.292,4.292,0,0,1,1.391-1.146,7.011,7.011,0,0,1,1.849-.673,9.1,9.1,0,0,1,1.91-.213,8.757,8.757,0,0,1,4.431.993,6.374,6.374,0,0,1,2.537,2.582,7.386,7.386,0,0,1,.825,3.453,10.354,10.354,0,0,1-.168,1.926,4.625,4.625,0,0,1-.443,1.375,2.548,2.548,0,0,1,.657.856,2.347,2.347,0,0,1,.229,1.008,2.249,2.249,0,0,1-.566,1.513,2,2,0,0,1-1.6.657,2.684,2.684,0,0,1-1.253-.244,5.007,5.007,0,0,1-.917-.642,6.3,6.3,0,0,1-1.62.657A9.4,9.4,0,0,1,187.046,154.526Zm.612-3.087a1.624,1.624,0,0,0,1.054-.29.79.79,0,0,0,0-1.314,2.033,2.033,0,0,0-2.093,0,.772.772,0,0,0,0,1.314A1.633,1.633,0,0,0,187.658,151.439Z"/><path class="cls-6" d="M206.361,154.526a5.964,5.964,0,0,1-2.17-.427,6.032,6.032,0,0,1-1.971-1.253,4.866,4.866,0,0,1-1.268-1.987,8.3,8.3,0,0,1-.4-1.9q-.123-1.131-.169-2.414t-.045-2.506a16.114,16.114,0,0,1-2.277-.214,4.107,4.107,0,0,1-1.773-.688,1.722,1.722,0,0,1-.687-1.482,2.321,2.321,0,0,1,.642-1.788,3.357,3.357,0,0,1,1.726-.794,15.19,15.19,0,0,1,2.369-.23,18.312,18.312,0,0,1,.168-1.94,8.082,8.082,0,0,1,.473-1.849,3.523,3.523,0,0,1,.948-1.391,2.327,2.327,0,0,1,1.589-.535,2.2,2.2,0,0,1,1.91.825,4.483,4.483,0,0,1,.749,2.14,20.146,20.146,0,0,1,.122,2.75,19.868,19.868,0,0,1,2.812.123,4.06,4.06,0,0,1,1.925.672,1.916,1.916,0,0,1,.7,1.65,2.016,2.016,0,0,1-.8,1.742,4.685,4.685,0,0,1-2.078.779,20.49,20.49,0,0,1-2.72.23q0,.581-.015,1.207t-.015,1.268a8.736,8.736,0,0,0,.244,2.476,1.112,1.112,0,0,0,.505.7,2.042,2.042,0,0,0,.809.168,5.553,5.553,0,0,1,1.192.2,1.714,1.714,0,0,1,1.1.749,2.673,2.673,0,0,1,.4,1.513,1.784,1.784,0,0,1-1.085,1.62A6.216,6.216,0,0,1,206.361,154.526Z"/><rect class="cls-3" x="358.065" y="35.999" width="201.787" height="133.209"/><path class="cls-5" d="M422.638,77.445c.577-.96,1.18-1.884,1.685-2.858a1.319,1.319,0,0,0-.061-1.023,28.975,28.975,0,0,1-.869-23.94c1.874-4.887,5.12-5.925,10.284-4.159a28.785,28.785,0,0,1,14.188,10.97,1.665,1.665,0,0,0,2.121.792,37.559,37.559,0,0,1,17.783.021,1.6,1.6,0,0,0,2.045-.725,29.736,29.736,0,0,1,13.958-11.071c2.959-1.11,6.751-1.452,8.912,1.447a14.073,14.073,0,0,1,1.961,3.414,28.819,28.819,0,0,1,.64,19.015c-.431,1.391-1.12,2.7-1.616,4.075a1.954,1.954,0,0,0-.012,1.342,27.412,27.412,0,0,0,1.474,2.528c.133-.161.309-.288.365-.454.907-2.7,2.918-3.719,5.626-3.867a33.817,33.817,0,0,1,24.492,8.131,23.916,23.916,0,0,1,7.454,10.364,4.3,4.3,0,0,1-1.227,5.065,3.914,3.914,0,0,1-4.653.336c-5.62-2.791-11.246-.576-13.684,5.316-1.565,3.782-3.971,4.59-7.579,2.547-4.025-2.28-7.372-2.244-10.335.365a15.921,15.921,0,0,0-2.782,3.572,28.14,28.14,0,0,1-10.687,10.058,2.791,2.791,0,0,0-1.089,1.7c-.615,2.56-1.629,4.814-3.975,6.272-3.772,2.343-9.93,1.385-12.851-1.945a2.527,2.527,0,0,0-1.662-.707c-2.352-.075-4.708-.052-7.061,0a2.108,2.108,0,0,0-1.356.473,11.01,11.01,0,0,1-9.878,3.341c-4.473-.6-6.466-3.6-7.546-7.584a2.807,2.807,0,0,0-1.162-1.656A25.254,25.254,0,0,1,424.9,108.118c-2.722-4.841-7.724-6.457-12.728-3.49-1.747,1.036-3.629,1.9-5.47.525a7.055,7.055,0,0,1-2.139-3.023c-1.873-4.832-7.687-8.431-13.49-5.366-1.661.877-3.353,1.151-4.792-.177a4.472,4.472,0,0,1-1.217-5.2,26.448,26.448,0,0,1,10.08-12.462,32.084,32.084,0,0,1,15.478-5.871,46.309,46.309,0,0,1,6.19-.054,5.572,5.572,0,0,1,5.511,3.849A4.776,4.776,0,0,0,422.638,77.445Zm68.683-17.123A17.6,17.6,0,0,0,489.2,50.128c-.465-.783-1.045-1.18-1.938-.838a27.438,27.438,0,0,0-4.468,1.824c-4.3,2.606-7.9,5.932-9.978,10.655a1.491,1.491,0,0,1-2.068.959,57.911,57.911,0,0,0-7.607-1.54,38.106,38.106,0,0,0-16.274,1.578,1.31,1.31,0,0,1-1.865-.8A22.968,22.968,0,0,0,431.8,49.74c-2.374-.917-2.9-.707-3.753,1.669A25.827,25.827,0,0,0,429.4,72.723c.33.65.735,1.144.209,1.975-4.7,7.428-6.035,15.374-3.49,23.867,1.9,6.354,5.3,11.783,11.114,15.1,2.67,1.522,4.063,3.155,4.378,6.145a3.964,3.964,0,0,0,2.96,3.485c2.635.7,4.515-.268,5.607-3.127.5-1.308,1.149-1.474,2.323-1.186a26.153,26.153,0,0,0,12.667.054c1.344-.331,2.136-.278,2.614,1.307a4.21,4.21,0,0,0,4.106,3.209,4.3,4.3,0,0,0,4.167-3.115,11.631,11.631,0,0,0,.709-3.426c.052-1.065.6-1.474,1.394-2,2.425-1.606,5.039-3.068,7.075-5.091,5.328-5.292,7.655-12,7.8-19.386a27.434,27.434,0,0,0-4.612-15.825,1.99,1.99,0,0,1-.093-1.691A23.342,23.342,0,0,0,491.321,60.322ZM508.1,100.859c-.564-3.395-.92-6.572-1.661-9.657a48.816,48.816,0,0,0-2.449-6.7c-.454-1.126-1.169-2.148-1.609-3.278-.147-.378.2-.946.313-1.427a11.082,11.082,0,0,1,1.312.4c.206.091.344.343.5.53a29.081,29.081,0,0,1,5.053,9.013,25.562,25.562,0,0,1,1.059,3.625c.253,1.249.32,2.536.491,4,4.653-5.679,10.254-6.9,16.6-4.116a5.245,5.245,0,0,0,1.772.025c-.429-1.063-.74-1.871-1.083-2.664a7.237,7.237,0,0,0-.516-.881A26.761,26.761,0,0,0,516,79.491a27.649,27.649,0,0,0-14.241-2.636,2.2,2.2,0,0,0-2.212,1.513c-.511,1.355-1.35,2.583-1.924,3.918a4.923,4.923,0,0,0-.393,2.157c.149,2.582.65,5.166.552,7.732a55.012,55.012,0,0,1-1.136,7.147,44.776,44.776,0,0,1,6.366-.169C504.608,99.321,506.133,100.169,508.1,100.859Zm-86.814-1.535c-.018-.194-.023-.376-.054-.553-.688-3.894-1.7-7.783-.826-11.762.558-2.531-.041-4.607-1.067-7.013-1.111-2.6-2.594-3.352-5.015-3.327-.634.006-1.267.124-1.9.172A28.421,28.421,0,0,0,392.3,86.893a47.288,47.288,0,0,0-3.745,5.837c1.37,1.422,2.283.344,3.2.018,3.314-1.179,6.639-1.561,9.792.256a56,56,0,0,1,5.178,3.752c.071-.209.281-.737.43-1.282.627-2.294.941-4.728,1.923-6.856a74.548,74.548,0,0,1,4.785-8.154c.237-.379.956-.457,1.452-.674.125.572.272,1.14.361,1.718a1.2,1.2,0,0,1-.174.551c-1.29,3.139-2.835,6.2-3.8,9.437a81.862,81.862,0,0,0-1.707,9.257l.347.243C413.747,98.866,417.452,98.889,421.286,99.324Z"/><path class="cls-5" d="M524.956,103.17c-.281,4.013-1.488,7.332-4.277,9.945a4.512,4.512,0,0,1-.949.687c-.824.438-1.7.71-2.35-.236a1.767,1.767,0,0,1,.337-2.511,9.429,9.429,0,0,0,3.49-6.223,15.43,15.43,0,0,0-.285-3.565c-.15-1.065-.636-2.211.891-2.654,1.305-.378,2.375.408,2.705,1.959C524.721,101.525,524.844,102.5,524.956,103.17Z"/><path class="cls-5" d="M394.986,98.551c1.926.016,2.592.862,2.175,2.317-.524,1.826-.976,3.668-.09,5.429a27.123,27.123,0,0,0,2.918,4.612c.815,1.03,1.28,2.14.553,2.825-.891.84-1.837.458-2.661-.168a11.09,11.09,0,0,1-3.869-5.231c-.908-2.649-1.508-5.422-.4-8.171A5.76,5.76,0,0,1,394.986,98.551Z"/><path class="cls-5" d="M519.056,104.444a7.211,7.211,0,0,1-3.443,5.664c-.9.575-1.764.681-2.452-.249-.631-.853-.223-1.452.533-2.081a4.924,4.924,0,0,0,1.879-3.807,1.9,1.9,0,0,1,1.9-2.025C518.605,101.947,519.106,102.871,519.056,104.444Z"/><path class="cls-5" d="M403.624,110.64a6.406,6.406,0,0,1-4.31-4.432,4.747,4.747,0,0,1-.254-2.585A2.558,2.558,0,0,1,400.589,102c.429-.1,1.5.766,1.592,1.311a7.825,7.825,0,0,0,2.711,5.178,1.213,1.213,0,0,1,0,1.173A5.536,5.536,0,0,1,403.624,110.64Z"/><path class="cls-6" d="M491.321,60.322a23.342,23.342,0,0,1-2.991,12.7,1.99,1.99,0,0,0,.093,1.691,27.434,27.434,0,0,1,4.612,15.825c-.145,7.384-2.472,14.094-7.8,19.386-2.036,2.023-4.65,3.485-7.075,5.091-.8.526-1.342.935-1.394,2a11.631,11.631,0,0,1-.709,3.426,4.3,4.3,0,0,1-4.167,3.115,4.21,4.21,0,0,1-4.106-3.209c-.478-1.585-1.27-1.638-2.614-1.307a26.153,26.153,0,0,1-12.667-.054c-1.174-.288-1.823-.122-2.323,1.186-1.092,2.859-2.972,3.826-5.607,3.127a3.964,3.964,0,0,1-2.96-3.485c-.315-2.99-1.708-4.623-4.378-6.145-5.816-3.317-9.21-8.746-11.114-15.1-2.545-8.493-1.212-16.439,3.49-23.867.526-.831.121-1.325-.209-1.975a25.827,25.827,0,0,1-1.353-21.314c.858-2.376,1.379-2.586,3.753-1.669A22.968,22.968,0,0,1,445,61.961a1.31,1.31,0,0,0,1.865.8,38.106,38.106,0,0,1,16.274-1.578,57.911,57.911,0,0,1,7.607,1.54,1.491,1.491,0,0,0,2.068-.959c2.075-4.723,5.673-8.049,9.978-10.655a27.438,27.438,0,0,1,4.468-1.824c.893-.342,1.473.055,1.938.838A17.6,17.6,0,0,1,491.321,60.322ZM458.466,94.441l.218.357c1.474-.085,2.628.21,3.342,1.773s1.857,1.746,3.384.923c2.3-1.238,2.985-3.422,3.247-5.759s-.865-3.1-3.12-2.35c-2.843.944-5.715,1.859-8.766,1.152-1.664-.386-3.3-.9-4.941-1.375-1.692-.492-2.915.25-2.674,1.946a13.319,13.319,0,0,0,1.537,4.943c1.53,2.538,3.812,2.333,5.429-.053C456.608,95.28,457.669,94.949,458.466,94.441Zm-15.278-14.05a11.05,11.05,0,0,0-2.051.663,5.475,5.475,0,0,0-1.985,7.311,4.218,4.218,0,0,0,6.28,1.811c1.591-.965,2-2.474,2.217-4.093A5.139,5.139,0,0,0,443.188,80.391Zm27.086,5.34c-.009,2.86,2.031,5.385,4.458,5.208,2.544-.186,4.569-1.663,4.593-5.181.021-2.974-1.969-5.218-4.6-5.208C472.191,80.56,470.283,82.782,470.274,85.731Z"/><path class="cls-6" d="M508.1,100.859c-1.967-.69-3.492-1.538-5.088-1.706a44.776,44.776,0,0,0-6.366.169,55.012,55.012,0,0,0,1.136-7.147c.1-2.566-.4-5.15-.552-7.732a4.923,4.923,0,0,1,.393-2.157c.574-1.335,1.413-2.563,1.924-3.918a2.2,2.2,0,0,1,2.212-1.513A27.649,27.649,0,0,1,516,79.491a26.761,26.761,0,0,1,11.885,10.248,7.237,7.237,0,0,1,.516.881c.343.793.654,1.6,1.083,2.664a5.245,5.245,0,0,1-1.772-.025c-6.346-2.787-11.947-1.563-16.6,4.116-.171-1.467-.238-2.754-.491-4a25.562,25.562,0,0,0-1.059-3.625,29.081,29.081,0,0,0-5.053-9.013c-.159-.187-.3-.439-.5-.53a11.082,11.082,0,0,0-1.312-.4c-.118.481-.46,1.049-.313,1.427.44,1.13,1.155,2.152,1.609,3.278a48.816,48.816,0,0,1,2.449,6.7C507.18,94.287,507.536,97.464,508.1,100.859Z"/><path class="cls-6" d="M421.286,99.324c-3.834-.435-7.539-.458-10.95,1.672l-.347-.243A81.862,81.862,0,0,1,411.7,91.5c.965-3.235,2.51-6.3,3.8-9.437a1.2,1.2,0,0,0,.174-.551c-.089-.578-.236-1.146-.361-1.718-.5.217-1.215.295-1.452.674a74.548,74.548,0,0,0-4.785,8.154c-.982,2.128-1.3,4.562-1.923,6.856-.149.545-.359,1.073-.43,1.282A56,56,0,0,0,401.541,93c-3.153-1.817-6.478-1.435-9.792-.256-.916.326-1.829,1.4-3.2-.018a47.288,47.288,0,0,1,3.745-5.837,28.421,28.421,0,0,1,20.127-10.052c.635-.048,1.268-.166,1.9-.172,2.421-.025,3.9.724,5.015,3.327,1.026,2.406,1.625,4.482,1.067,7.013-.876,3.979.138,7.868.826,11.762C421.263,98.948,421.268,99.13,421.286,99.324Z"/><path class="cls-5" d="M458.466,94.441c-.8.508-1.858.839-2.344,1.557-1.617,2.386-3.9,2.591-5.429.053a13.319,13.319,0,0,1-1.537-4.943c-.241-1.7.982-2.438,2.674-1.946,1.642.478,3.277.989,4.941,1.375,3.051.707,5.923-.208,8.766-1.152,2.255-.749,3.381.011,3.12,2.35s-.95,4.521-3.247,5.759c-1.527.823-2.673.633-3.384-.923s-1.868-1.858-3.342-1.773Zm-5.17,1.37.587-.186,1.09-2.388L452.2,92.173l-.339.245Zm12.64-3.7-3.011,1.075,1.167,2.524.463.015Z"/><path class="cls-5" d="M443.188,80.391a5.139,5.139,0,0,1,4.461,5.692c-.213,1.619-.626,3.128-2.217,4.093a4.218,4.218,0,0,1-6.28-1.811,5.475,5.475,0,0,1,1.985-7.311A11.05,11.05,0,0,1,443.188,80.391Z"/><path class="cls-5" d="M470.274,85.731c.009-2.949,1.917-5.171,4.448-5.181,2.634-.01,4.624,2.234,4.6,5.208-.024,3.518-2.049,5-4.593,5.181C472.305,91.116,470.265,88.591,470.274,85.731Z"/><path class="cls-7" d="M453.3,95.811l-1.431-3.393.339-.245,2.769,1.064-1.09,2.388Z"/><path class="cls-7" d="M465.936,92.108l-1.381,3.614-.463-.015-1.167-2.524Z"/><path class="cls-5" d="M531.549,147.519c-.254-.066-.5-.119-.729-.161-.011-.222-.019-.5-.019-.839v-.04q.269-.035.531-.076a7.275,7.275,0,0,0,3.222-1.252,4.629,4.629,0,0,0,1.87-3.858,4.52,4.52,0,0,0-1.765-3.756h0a6.62,6.62,0,0,0-3.156-1.164c-.2-.025-.4-.046-.6-.065-.017-.172-.034-.344-.054-.513a7.065,7.065,0,0,0-1.227-3.369,4.8,4.8,0,0,0-4.033-1.911,4.941,4.941,0,0,0-3.315,1.183,6.129,6.129,0,0,0-1.66,2.4,10.647,10.647,0,0,0-.613,2.329q-.219.033-.432.072a5.943,5.943,0,0,0-3.036,1.451,4.426,4.426,0,0,0-.955,1.3c-.178-.119-.344-.247-.533-.357a11.338,11.338,0,0,0-5.746-1.347,11.782,11.782,0,0,0-2.461.272,9.73,9.73,0,0,0-2.23.789,8.3,8.3,0,0,0-1.75-4.166,9.886,9.886,0,0,0-4.232-2.986,15.576,15.576,0,0,0-5.585-.938,11.885,11.885,0,0,0-6.515,1.742,10.7,10.7,0,0,0-2.819,2.667,4.655,4.655,0,0,0-1.554-1.382,10.687,10.687,0,0,0-4.4-1.065c-1.146-.079-2.54-.128-4.16-.149a4.8,4.8,0,0,0-1.222-1.226,5.91,5.91,0,0,0-6.6,0,5.068,5.068,0,0,0-1.446,1.49c-.047.007-.088.017-.134.024.009-.171.023-.34.023-.517,0-3.671-2.3-4.973-4.27-4.973a4.144,4.144,0,0,0-1.915.454,4.227,4.227,0,0,0-1.936-.454,3.835,3.835,0,0,0-3.555,2.085,5.5,5.5,0,0,0-.5,1.557c-.025,0-.047,0-.072,0a5.2,5.2,0,0,0-3.023.851,4.809,4.809,0,0,0-1.581,1.833c-.88.024-1.674.064-2.376.121a10.54,10.54,0,0,0-2.232.406c-.1-.171-.192-.345-.31-.509a4.9,4.9,0,0,0-4.2-1.968A5.367,5.367,0,0,0,434.2,133.2a7.509,7.509,0,0,0-.746.97,4.793,4.793,0,0,0-.874-.627,10.687,10.687,0,0,0-4.4-1.065c-1.146-.079-2.54-.128-4.159-.149A4.818,4.818,0,0,0,422.8,131.1a5.91,5.91,0,0,0-6.6,0,5.068,5.068,0,0,0-1.446,1.49c-.047.007-.088.017-.134.024.009-.171.023-.34.023-.517,0-3.671-2.3-4.973-4.27-4.973a4.15,4.15,0,0,0-1.915.454,4.224,4.224,0,0,0-1.936-.454,3.836,3.836,0,0,0-3.555,2.085,5.5,5.5,0,0,0-.5,1.557c-.025,0-.047,0-.072,0a5.2,5.2,0,0,0-3.023.851,4.826,4.826,0,0,0-1.581,1.833c-.88.024-1.674.064-2.376.121a10.54,10.54,0,0,0-2.232.406c-.1-.171-.192-.345-.31-.509a4.9,4.9,0,0,0-4.2-1.968,5.367,5.367,0,0,0-4.042,1.706,8.515,8.515,0,0,0-1.831,3.251,17.048,17.048,0,0,0-.708,3.557c-.108,1.151-.164,2.283-.164,3.366a27.8,27.8,0,0,0,.32,4.167,21.946,21.946,0,0,0,.974,3.991,10.606,10.606,0,0,0,1.89,3.419,5.114,5.114,0,0,0,3.958,1.891,4.422,4.422,0,0,0,3.223-1.388,4.72,4.72,0,0,0,.432-.541,8.239,8.239,0,0,0,1.011.72,7.842,7.842,0,0,0,4.075,1.087,9.1,9.1,0,0,0,4.7-1.146,9.37,9.37,0,0,0,1.1-.76,5.224,5.224,0,0,0,2.273.5,4.441,4.441,0,0,0,3.411-1.5,4.714,4.714,0,0,0,1.164-3.141,7.916,7.916,0,0,0-1.166-3.993,11.591,11.591,0,0,0-1.772-2.3c.011-.275.021-.578.031-.913a6.876,6.876,0,0,0,1.542-.643,4.374,4.374,0,0,0,1.539-1.5,4.777,4.777,0,0,0,.886.681,6.864,6.864,0,0,0,1.059.5,13.825,13.825,0,0,1-.694,1.648q-.418.837-.834,1.749a7.014,7.014,0,0,0-.635,2.937,4.917,4.917,0,0,0,5.034,4.85,5.477,5.477,0,0,0,2.842-.788,5,5,0,0,0,1.7,2.269,9.035,9.035,0,0,0,3.407,1.549,15.367,15.367,0,0,0,3.575.424,14.271,14.271,0,0,0,3.573-.435,7.764,7.764,0,0,0,3.27-1.663,5.153,5.153,0,0,0,.516-.563c.117.158.232.32.356.464a5.115,5.115,0,0,0,3.959,1.891,4.42,4.42,0,0,0,3.222-1.388,4.623,4.623,0,0,0,.433-.541,8.089,8.089,0,0,0,1.011.72,7.84,7.84,0,0,0,4.075,1.087,9.1,9.1,0,0,0,4.7-1.146,9.274,9.274,0,0,0,1.1-.76,5.228,5.228,0,0,0,2.273.5,4.442,4.442,0,0,0,3.412-1.5,4.714,4.714,0,0,0,1.164-3.141,7.926,7.926,0,0,0-1.166-3.993,11.591,11.591,0,0,0-1.772-2.3c.01-.275.021-.578.031-.913a6.876,6.876,0,0,0,1.542-.643,4.383,4.383,0,0,0,1.539-1.5,4.777,4.777,0,0,0,.886.681,6.777,6.777,0,0,0,1.059.5,13.831,13.831,0,0,1-.695,1.648c-.278.558-.558,1.141-.834,1.749a7.014,7.014,0,0,0-.634,2.937,4.917,4.917,0,0,0,5.034,4.85,5.477,5.477,0,0,0,2.842-.788,5.007,5.007,0,0,0,1.7,2.269,9.04,9.04,0,0,0,3.408,1.549,15.367,15.367,0,0,0,3.575.424,14.271,14.271,0,0,0,3.573-.435,7.764,7.764,0,0,0,3.27-1.663,5.063,5.063,0,0,0,.977-1.217,9.577,9.577,0,0,0,2.821,1.976,16.186,16.186,0,0,0,6.626,1.308,15.91,15.91,0,0,0,4.774-.624,9.261,9.261,0,0,0,3.522-1.929c.091-.084.168-.174.255-.259a6.963,6.963,0,0,0,3.115,2.221,10.448,10.448,0,0,0,3.645.622,11.8,11.8,0,0,0,2.948-.313q.359-.093.7-.21a5.2,5.2,0,0,0,2.429.523,4.555,4.555,0,0,0,3.589-1.567,4.873,4.873,0,0,0,1.2-3.223,4.966,4.966,0,0,0-.477-2.121c-.032-.068-.066-.137-.1-.2.033-.137.062-.28.09-.427a13.012,13.012,0,0,0,.214-2.413c0-.265-.026-.524-.045-.785l.028.006.136.023.007.209c.033.914.094,1.79.182,2.6a10.67,10.67,0,0,0,.522,2.462,7.485,7.485,0,0,0,1.946,3.042,9.113,9.113,0,0,0,10.1,1.508,4.4,4.4,0,0,0,2.469-3.93,5.248,5.248,0,0,0-.838-2.966A4.306,4.306,0,0,0,531.549,147.519Z"/><path class="cls-6" d="M389.065,154.221a2.531,2.531,0,0,1-1.971-.978,8,8,0,0,1-1.4-2.583,19.145,19.145,0,0,1-.856-3.514,25.03,25.03,0,0,1-.29-3.774q0-1.5.152-3.118a14.358,14.358,0,0,1,.6-3.01,5.891,5.891,0,0,1,1.253-2.262,2.764,2.764,0,0,1,2.124-.871,2.394,2.394,0,0,1,2.079.887,3.453,3.453,0,0,1,.641,2.078,6.752,6.752,0,0,1-.382,2.231q-.382,1.1-.764,2.338a9.811,9.811,0,0,0-.382,2.888,21.042,21.042,0,0,0,.168,2.949,13.829,13.829,0,0,0,.4,1.91q.229.764.4,1.375a5.07,5.07,0,0,1,.168,1.345,2.08,2.08,0,0,1-.581,1.513A1.824,1.824,0,0,1,389.065,154.221Zm8.741-.122a5.244,5.244,0,0,1-2.735-.719,5.385,5.385,0,0,1-1.91-1.895,4.879,4.879,0,0,1-.7-2.551,5.225,5.225,0,0,1,3.132-5.013,7.675,7.675,0,0,1,3.255-.672,8.456,8.456,0,0,1,1.253.092c-.02-.346-.041-.682-.061-1.008s-.041-.652-.061-.979q-2.506,0-4.248-.122a5.9,5.9,0,0,1-2.659-.688,2.035,2.035,0,0,1-.917-1.879,1.957,1.957,0,0,1,.887-1.8,5.86,5.86,0,0,1,2.582-.688q1.7-.137,4.141-.137a4.562,4.562,0,0,1,.305-1.284,2.182,2.182,0,0,1,.8-.993,2.646,2.646,0,0,1,1.528-.382,2.7,2.7,0,0,1,1.59.4,2.146,2.146,0,0,1,.779,1.039,5.331,5.331,0,0,1,.29,1.314,6.587,6.587,0,0,1,2.735.7,1.958,1.958,0,0,1,.932,1.834,2.01,2.01,0,0,1-.947,1.9,6.8,6.8,0,0,1-2.781.7q-.031,1.069-.061,2.063t-.061,1.634a4.271,4.271,0,0,1-.03.52A9.418,9.418,0,0,1,407.021,148a5.333,5.333,0,0,1,.809,2.675,2.093,2.093,0,0,1-.519,1.421,1.808,1.808,0,0,1-1.436.6,2.589,2.589,0,0,1-1.422-.4,6.152,6.152,0,0,1-1.177-.978,6.3,6.3,0,0,1-2.108,2A6.512,6.512,0,0,1,397.806,154.1Zm.673-4a1.113,1.113,0,0,0,1.283-.565,4.286,4.286,0,0,0,.4-1.6,2.734,2.734,0,0,0-1.619-.519,1.759,1.759,0,0,0-1.07.336,1.106,1.106,0,0,0-.459.947,1.341,1.341,0,0,0,.413,1.009A1.458,1.458,0,0,0,398.479,150.1Zm8.037-15.158a1.23,1.23,0,0,1-1.222-.719,4.9,4.9,0,0,1-.336-2.032,3.953,3.953,0,0,1,.336-1.788,1.248,1.248,0,0,1,1.222-.657,1.316,1.316,0,0,1,1.253.657,3.75,3.75,0,0,1,.367,1.818,4.461,4.461,0,0,1-.367,2A1.293,1.293,0,0,1,406.516,134.937Zm3.79,0a1.161,1.161,0,0,1-1.207-.75,5.329,5.329,0,0,1-.291-1.91,4.77,4.77,0,0,1,.306-1.756,1.209,1.209,0,0,1,1.253-.78q1.65,0,1.65,2.353a4.97,4.97,0,0,1-.367,2A1.34,1.34,0,0,1,410.306,134.937Z"/><path class="cls-6" d="M415.44,151.073a2.277,2.277,0,0,1-1.772-.7,2.226,2.226,0,0,1-.642-1.528,4.4,4.4,0,0,1,.4-1.849q.4-.871.8-1.666a16.381,16.381,0,0,0,.932-2.277,19.433,19.433,0,0,0,.626-2.521,7.236,7.236,0,0,1-2.934-.779,2.355,2.355,0,0,1,.2-3.988,9.869,9.869,0,0,1,3.5-.734,2.752,2.752,0,0,1,1.115-1.757,3.242,3.242,0,0,1,1.849-.565,3.1,3.1,0,0,1,1.8.549,2.407,2.407,0,0,1,.978,1.682q3.483,0,5.715.152a8.35,8.35,0,0,1,3.316.749,2.335,2.335,0,0,1-.046,3.973,8.876,8.876,0,0,1-3.469.733q-2.337.138-5.944.138a27.793,27.793,0,0,1-.886,3.331,23.238,23.238,0,0,1-1.345,3.209,16.474,16.474,0,0,1-.993,1.7,6.628,6.628,0,0,1-1.375,1.528A2.817,2.817,0,0,1,415.44,151.073Zm11.522,3.453a12.688,12.688,0,0,1-2.964-.351,6.432,6.432,0,0,1-2.43-1.085,2.277,2.277,0,0,1-.963-1.9,2.105,2.105,0,0,1,.52-1.344,2,2,0,0,1,1.65-.643,3.434,3.434,0,0,1,1.223.2q.519.2,1.176.4a6.43,6.43,0,0,0,1.788.2,5.775,5.775,0,0,0,1.727-.2,8.692,8.692,0,0,0,1.008-.4,2.278,2.278,0,0,1,.993-.2,2.037,2.037,0,0,1,1.681.643,2.111,2.111,0,0,1,.52,1.344,2.415,2.415,0,0,1-.826,1.9,5.171,5.171,0,0,1-2.185,1.085A11.639,11.639,0,0,1,426.962,154.526Zm-3.056-7.548a2.232,2.232,0,0,1-1.513-.489,1.758,1.758,0,0,1-.565-1.406,2.142,2.142,0,0,1,.764-1.757,4.405,4.405,0,0,1,1.925-.871,11.393,11.393,0,0,1,2.353-.245,12.327,12.327,0,0,1,2.537.245,3.971,3.971,0,0,1,1.864.871,2.229,2.229,0,0,1,.7,1.757,1.628,1.628,0,0,1-.626,1.406,2.518,2.518,0,0,1-1.605.428c-.366-.021-.851-.031-1.451-.031H426.87q-.887,0-1.757.046T423.906,146.978Z"/><path class="cls-6" d="M438.636,154.221a2.53,2.53,0,0,1-1.971-.978,8.023,8.023,0,0,1-1.406-2.583,19.309,19.309,0,0,1-.856-3.514,25.161,25.161,0,0,1-.29-3.774q0-1.5.153-3.118a14.3,14.3,0,0,1,.6-3.01,5.891,5.891,0,0,1,1.253-2.262,2.764,2.764,0,0,1,2.124-.871,2.392,2.392,0,0,1,2.078.887,3.447,3.447,0,0,1,.642,2.078,6.752,6.752,0,0,1-.382,2.231q-.382,1.1-.764,2.338a9.811,9.811,0,0,0-.382,2.888,21.042,21.042,0,0,0,.168,2.949,13.682,13.682,0,0,0,.4,1.91q.23.764.4,1.375a5.111,5.111,0,0,1,.168,1.345,2.08,2.08,0,0,1-.581,1.513A1.824,1.824,0,0,1,438.636,154.221Zm8.741-.122a5.241,5.241,0,0,1-2.735-.719,5.377,5.377,0,0,1-1.91-1.895,4.879,4.879,0,0,1-.7-2.551,5.225,5.225,0,0,1,3.132-5.013,7.668,7.668,0,0,1,3.255-.672,8.456,8.456,0,0,1,1.253.092c-.02-.346-.041-.682-.061-1.008s-.041-.652-.061-.979q-2.507,0-4.248-.122a5.9,5.9,0,0,1-2.659-.688,2.035,2.035,0,0,1-.917-1.879,1.958,1.958,0,0,1,.886-1.8,5.869,5.869,0,0,1,2.583-.688q1.695-.137,4.141-.137a4.562,4.562,0,0,1,.3-1.284,2.169,2.169,0,0,1,.8-.993,2.646,2.646,0,0,1,1.528-.382,2.7,2.7,0,0,1,1.589.4,2.142,2.142,0,0,1,.78,1.039,5.377,5.377,0,0,1,.29,1.314,6.591,6.591,0,0,1,2.735.7,1.958,1.958,0,0,1,.932,1.834,2.01,2.01,0,0,1-.947,1.9,6.8,6.8,0,0,1-2.781.7q-.031,1.069-.061,2.063t-.061,1.634a4.264,4.264,0,0,1-.031.52A9.4,9.4,0,0,1,456.591,148a5.325,5.325,0,0,1,.81,2.675,2.089,2.089,0,0,1-.52,1.421,1.805,1.805,0,0,1-1.436.6,2.585,2.585,0,0,1-1.421-.4,6.122,6.122,0,0,1-1.177-.978,6.314,6.314,0,0,1-2.108,2A6.515,6.515,0,0,1,447.377,154.1Zm.672-4a1.115,1.115,0,0,0,1.284-.565,4.286,4.286,0,0,0,.4-1.6,2.734,2.734,0,0,0-1.62-.519,1.759,1.759,0,0,0-1.069.336,1.106,1.106,0,0,0-.459.947A1.341,1.341,0,0,0,447,149.7,1.457,1.457,0,0,0,448.049,150.1Zm8.038-15.158a1.231,1.231,0,0,1-1.223-.719,4.917,4.917,0,0,1-.336-2.032,3.966,3.966,0,0,1,.336-1.788,1.249,1.249,0,0,1,1.223-.657,1.316,1.316,0,0,1,1.253.657,3.75,3.75,0,0,1,.367,1.818,4.461,4.461,0,0,1-.367,2A1.293,1.293,0,0,1,456.087,134.937Zm3.79,0a1.163,1.163,0,0,1-1.208-.75,5.353,5.353,0,0,1-.29-1.91,4.77,4.77,0,0,1,.306-1.756,1.209,1.209,0,0,1,1.253-.78q1.65,0,1.65,2.353a4.97,4.97,0,0,1-.367,2A1.341,1.341,0,0,1,459.877,134.937Z"/><path class="cls-6" d="M465.011,151.073a2.281,2.281,0,0,1-1.773-.7,2.229,2.229,0,0,1-.641-1.528,4.4,4.4,0,0,1,.4-1.849q.4-.871.795-1.666a16.5,16.5,0,0,0,.932-2.277,19.433,19.433,0,0,0,.626-2.521,7.236,7.236,0,0,1-2.934-.779,2.355,2.355,0,0,1,.2-3.988,9.868,9.868,0,0,1,3.5-.734,2.753,2.753,0,0,1,1.116-1.757,3.24,3.24,0,0,1,1.849-.565,3.1,3.1,0,0,1,1.8.549,2.41,2.41,0,0,1,.978,1.682q3.483,0,5.715.152a8.35,8.35,0,0,1,3.316.749,2.335,2.335,0,0,1-.046,3.973,8.876,8.876,0,0,1-3.469.733q-2.337.138-5.944.138a27.793,27.793,0,0,1-.886,3.331,23.238,23.238,0,0,1-1.345,3.209,16.474,16.474,0,0,1-.993,1.7,6.628,6.628,0,0,1-1.375,1.528A2.817,2.817,0,0,1,465.011,151.073Zm11.522,3.453a12.7,12.7,0,0,1-2.965-.351,6.42,6.42,0,0,1-2.429-1.085,2.277,2.277,0,0,1-.963-1.9,2.109,2.109,0,0,1,.519-1.344,2,2,0,0,1,1.651-.643,3.425,3.425,0,0,1,1.222.2q.521.2,1.177.4a6.43,6.43,0,0,0,1.788.2,5.768,5.768,0,0,0,1.726-.2,8.643,8.643,0,0,0,1.009-.4,2.278,2.278,0,0,1,.993-.2,2.037,2.037,0,0,1,1.681.643,2.109,2.109,0,0,1,.519,1.344,2.415,2.415,0,0,1-.825,1.9,5.182,5.182,0,0,1-2.185,1.085A11.644,11.644,0,0,1,476.533,154.526Zm-3.056-7.548a2.231,2.231,0,0,1-1.513-.489,1.755,1.755,0,0,1-.565-1.406,2.142,2.142,0,0,1,.764-1.757,4.4,4.4,0,0,1,1.925-.871,11.393,11.393,0,0,1,2.353-.245,12.327,12.327,0,0,1,2.537.245,3.971,3.971,0,0,1,1.864.871,2.229,2.229,0,0,1,.7,1.757,1.628,1.628,0,0,1-.626,1.406,2.518,2.518,0,0,1-1.6.428q-.55-.032-1.452-.031h-1.421q-.886,0-1.757.046T473.477,146.978Z"/><path class="cls-6" d="M493.8,154.5a13.505,13.505,0,0,1-5.532-1.07,7.04,7.04,0,0,1-3.423-3.346,13.713,13.713,0,0,1-1.161-6.128,13.917,13.917,0,0,1,1.085-5.745,8.4,8.4,0,0,1,3.163-3.744,9.285,9.285,0,0,1,5.1-1.33,12.91,12.91,0,0,1,4.645.764,7.274,7.274,0,0,1,3.133,2.186,6.357,6.357,0,0,1,.642,6.616,7.471,7.471,0,0,1-2.216,2.445,3.307,3.307,0,0,1,1.941,1.192,3.614,3.614,0,0,1,.87,2.445,5.386,5.386,0,0,1-.4,1.986,5.054,5.054,0,0,1-1.329,1.864,6.653,6.653,0,0,1-2.537,1.361A13.489,13.489,0,0,1,493.8,154.5Zm-2.109-11.4a3.674,3.674,0,0,0,1.528.26,2.859,2.859,0,0,0,1.574-.474,1.769,1.769,0,0,0,.275-2.536,2.2,2.2,0,0,0-1.024-.6,3.989,3.989,0,0,0-1.252-.138,2.6,2.6,0,0,0-1.1.275,1.444,1.444,0,0,0-.779.948,2.263,2.263,0,0,0,0,1.329A1.434,1.434,0,0,0,491.691,143.1Zm0,7.152a4.1,4.1,0,0,0,1.528.229,3.187,3.187,0,0,0,1.574-.413,1.314,1.314,0,0,0,.688-1.222,1.292,1.292,0,0,0-.413-.993,2.291,2.291,0,0,0-1.024-.535,3.946,3.946,0,0,0-1.252-.107,3.667,3.667,0,0,0-1.1.229,1.334,1.334,0,0,0-.779.825,1.739,1.739,0,0,0,0,1.161A1.328,1.328,0,0,0,491.691,150.248Z"/><path class="cls-6" d="M509.111,154.526a7.809,7.809,0,0,1-2.735-.458,4.377,4.377,0,0,1-1.972-1.391,3.716,3.716,0,0,1-.733-2.368,3.092,3.092,0,0,1,.733-2.079,4.677,4.677,0,0,1,1.972-1.313,7.809,7.809,0,0,1,2.735-.459,8.785,8.785,0,0,1,1.62.138,2.929,2.929,0,0,1,1.008.321,1.64,1.64,0,0,0-.581-1.238,2.974,2.974,0,0,0-2.016-.535,4.1,4.1,0,0,0-1.055.107,3.915,3.915,0,0,0-.688.26,3.42,3.42,0,0,1-1.711.366,2.189,2.189,0,0,1-1.513-.5,1.962,1.962,0,0,1-.565-1.543,2.582,2.582,0,0,1,.535-1.635,4.277,4.277,0,0,1,1.39-1.146,7.036,7.036,0,0,1,1.849-.673,9.107,9.107,0,0,1,1.91-.213,8.761,8.761,0,0,1,4.432.993,6.372,6.372,0,0,1,2.536,2.582,7.374,7.374,0,0,1,.825,3.453,10.354,10.354,0,0,1-.168,1.926,4.6,4.6,0,0,1-.443,1.375,2.536,2.536,0,0,1,.657.856,2.347,2.347,0,0,1,.229,1.008,2.248,2.248,0,0,1-.565,1.513,2,2,0,0,1-1.605.657,2.68,2.68,0,0,1-1.252-.244,4.973,4.973,0,0,1-.917-.642,6.3,6.3,0,0,1-1.62.657A9.4,9.4,0,0,1,509.111,154.526Zm.611-3.087a1.624,1.624,0,0,0,1.054-.29.789.789,0,0,0,0-1.314,2.033,2.033,0,0,0-2.093,0,.772.772,0,0,0,0,1.314A1.635,1.635,0,0,0,509.722,151.439Z"/><path class="cls-6" d="M528.426,154.526a5.956,5.956,0,0,1-2.17-.427,6.021,6.021,0,0,1-1.971-1.253,4.868,4.868,0,0,1-1.269-1.987,8.3,8.3,0,0,1-.4-1.9q-.122-1.131-.168-2.414t-.046-2.506a16.114,16.114,0,0,1-2.277-.214,4.1,4.1,0,0,1-1.772-.688,1.723,1.723,0,0,1-.688-1.482,2.324,2.324,0,0,1,.642-1.788,3.361,3.361,0,0,1,1.727-.794,15.176,15.176,0,0,1,2.368-.23,18.58,18.58,0,0,1,.168-1.94,8.032,8.032,0,0,1,.474-1.849,3.511,3.511,0,0,1,.947-1.391,2.328,2.328,0,0,1,1.59-.535,2.2,2.2,0,0,1,1.91.825,4.493,4.493,0,0,1,.748,2.14,20.142,20.142,0,0,1,.123,2.75,19.854,19.854,0,0,1,2.811.123,4.06,4.06,0,0,1,1.926.672,1.919,1.919,0,0,1,.7,1.65,2.016,2.016,0,0,1-.795,1.742,4.69,4.69,0,0,1-2.078.779,20.519,20.519,0,0,1-2.72.23q0,.581-.016,1.207t-.015,1.268a8.69,8.69,0,0,0,.245,2.476,1.114,1.114,0,0,0,.5.7,2.047,2.047,0,0,0,.81.168,5.562,5.562,0,0,1,1.192.2,1.719,1.719,0,0,1,1.1.749,2.68,2.68,0,0,1,.4,1.513,1.784,1.784,0,0,1-1.085,1.62A6.211,6.211,0,0,1,528.426,154.526Z"/></svg>